<svg id="Layer_1" data-name="Layer 1" xmlns="http://www.w3.org/2000/svg" xmlns:xlink="http://www.w3.org/1999/xlink" viewBox="0 0 56 56">
  <defs>
    <style>
      .cls-1,.cls-5{fill:#FFCB54;}
      .cls-1,.cls-2,.cls-3,.cls-4,.cls-7,.cls-9{stroke:#363636;}
      .cls-1,.cls-9{stroke-miterlimit:10;}
      .cls-1,.cls-2,.cls-3,.cls-4,.cls-9{stroke-width:2px;}
      .cls-2{fill:#7EB55C;}
      .cls-2,.cls-3,.cls-4,.cls-7{stroke-linejoin:round;}
      .cls-3{fill:#95D16F;}
      .cls-4{fill:#7EDE94;}
      .cls-6{clip-path:url(#clip-path);}
      .cls-7{fill:#D98A55;}
      .cls-8{fill:#3D3D3D;opacity:0.3;}
      .cls-9{fill:none;}
    </style>
    <clipPath id="clip-path">
      <path class="cls-1" d="M28,55c-10.27,0-14.34-6.6-14.34-11.55,0-6.62,1.85-16.46,5.06-19C21,22.69,24.77,22,28,22s6.92,0.79,9.28,2.47,5.06,12.35,5.06,19C42.35,48.4,38.28,55,28,55Z"/>
    </clipPath>
  </defs>
  <title>pineapple</title>

  <path class="cls-2" d="M30.54,23.78H25.48V10.33A16.19,16.19,0,0,1,28.11,1a17.15,17.15,0,0,1,2.43,9.33V23.78Z"/><path class="cls-3" d="M16.48,4.38L26.82,22.52l4.84-1.37-5.47-9.73C23.28,6.4,18.67,4.37,16.48,4.38Z"/><path class="cls-3" d="M39.55,4.38l-9.67,17-5.54,0,5.49-9.73C32.74,6.54,37.37,4.38,39.55,4.38Z"/><path class="cls-4" d="M44.84,14.78L28,24.63l-4.85-2.84L32.91,16C37.94,13.13,42.95,13.68,44.84,14.78Z"/><path class="cls-4" d="M11.16,14.77L28,24.63l4.78-2.8-9.62-5.68C18.14,13.24,13.05,13.68,11.16,14.77Z"/><path class="cls-5" d="M28,55c-10.27,0-14.34-6.6-14.34-11.55,0-6.62,1.85-16.46,5.06-19C21,22.69,24.77,22,28,22s6.92,0.79,9.28,2.47,5.06,12.35,5.06,19C42.35,48.4,38.28,55,28,55Z"/><g class="cls-6"><polygon class="cls-7" points="17.65 38.5 17.65 38.5 22.73 46.31 27.74 38.35 22.73 30.31 17.65 38.5"/><polygon class="cls-7" points="12.5 46.31 17.5 38.35 12.5 30.31 12.5 46.31"/><polygon class="cls-7" points="37.53 38.5 37.47 38.5 42.5 46.31 42.5 30.31 37.53 38.5"/><polygon class="cls-7" points="32.64 30.31 27.74 38.35 32.64 46.31 37.65 38.5 32.64 30.31"/><polygon class="cls-7" points="37.65 22.5 27.65 22.5 32.64 30.31 37.65 22.5"/><polygon class="cls-7" points="17.65 22.5 22.73 30.31 27.65 22.5 17.65 22.5"/><polygon class="cls-7" points="22.73 46.31 17.65 54.5 27.65 54.5 28.01 54.5 37.65 54.5 32.64 46.31 27.82 54.21 22.73 46.31"/><path class="cls-8" d="M42.69,55H14.77s38.89-9.92,14.51-33h13.4V55Z"/></g><path class="cls-9" d="M28,55c-10.27,0-14.34-6.6-14.34-11.55,0-6.62,1.85-16.46,5.06-19C21,22.69,24.77,22,28,22s6.92,0.79,9.28,2.47,5.06,12.35,5.06,19C42.35,48.4,38.28,55,28,55Z"/>
</svg>